# xmcd
#
# Track frame offsets:
#	150
#	17229
#	31181
#	45379
#	60489
#	73770
#	95310
#	112019
#	129942
#	143239
#	160204
#	172562
#	189568
#	209696
#	224730
#	239548
#	254349
#
# Disc length: 3620 seconds
#
# Revision: 0
# Processed by: cddbd v1.5.1PL2 Copyright (c) Steve Scherf et al.
# Submitted via: audiograbber 1.83.01
#
DISCID=f30e2211
DTITLE=Various Artist - Hott Country 119
DYEAR=2006
DGENRE=Country
TTITLE0=Bon Jovi Feat Jennifer Nettles - Who Says You Can't Go Home
TTITLE1=Susan Haynes - Drinkin In My Sunday Dress
TTITLE2=Trent Tomlinson - Drunker Than Me
TTITLE3=Kenny Rogers - I Can't Unlove You
TTITLE4=Jeff Bates - No Shame
TTITLE5=Mark Knopler and Emmylou Harris - All The Road Running
TTITLE6=Trace Adkins - Honky Tonk Badabonk ( Country Club Mix )
TTITLE7=Tracy Lawrence - If I Don't Make It Back
TTITLE8=Ray Scott - My Kind Of Music
TTITLE9=Amanda Wilkinson - It's Ok To Cry
TTITLE10=Jace Everett - Bad things
TTITLE11=Lee Ann Womack - Twenty Years And Two Husbands Ago
TTITLE12=Rodney Crowell - Dancin'  Circles Round The Sun
TTITLE13=Billy Dean - Race  You To The Bottom
TTITLE14=Gord Bamford - I Would For You
TTITLE15=George Strait - All My Ex's Live In Texas
TTITLE16=Anne Murray - Nobody Love Me Like You Do
EXTD=January 2006
EXTT0=
EXTT1=
EXTT2=
EXTT3=
EXTT4=
EXTT5=
EXTT6=
EXTT7=
EXTT8=
EXTT9=
EXTT10=
EXTT11=
EXTT12=
EXTT13=
EXTT14=
EXTT15=
EXTT16=
PLAYORDER=
